<mxfile host="app.diagrams.net" modified="2023-06-03T05:43:13.230Z" agent="Mozilla/5.0 (Macintosh; Intel Mac OS X 10_15_7) AppleWebKit/537.36 (KHTML, like Gecko) Chrome/113.0.0.0 Safari/537.36" etag="gz-gwIvrmVc2FEtxEq8-" version="21.3.6" type="github">
  <diagram name="第 1 页" id="vvAjFNdVbKIWIhDnnMPU">
    <mxGraphModel dx="1432" dy="684" grid="1" gridSize="10" guides="1" tooltips="1" connect="1" arrows="1" fold="1" page="1" pageScale="1" pageWidth="827" pageHeight="1169" math="0" shadow="0">
      <root>
        <mxCell id="0" />
        <mxCell id="1" parent="0" />
        <mxCell id="MMu5Ellv6yzPF977NXEl-4" style="edgeStyle=orthogonalEdgeStyle;rounded=0;orthogonalLoop=1;jettySize=auto;html=1;exitX=1;exitY=0.5;exitDx=0;exitDy=0;exitPerimeter=0;entryX=0;entryY=0.5;entryDx=0;entryDy=0;" edge="1" parent="1" source="MMu5Ellv6yzPF977NXEl-1" target="MMu5Ellv6yzPF977NXEl-3">
          <mxGeometry relative="1" as="geometry" />
        </mxCell>
        <mxCell id="MMu5Ellv6yzPF977NXEl-1" value="" style="shape=cylinder3;whiteSpace=wrap;html=1;boundedLbl=1;backgroundOutline=1;size=15;" vertex="1" parent="1">
          <mxGeometry x="45" y="190" width="60" height="80" as="geometry" />
        </mxCell>
        <mxCell id="MMu5Ellv6yzPF977NXEl-2" value="Time series data" style="text;html=1;align=center;verticalAlign=middle;resizable=0;points=[];autosize=1;strokeColor=none;fillColor=none;" vertex="1" parent="1">
          <mxGeometry x="20" y="290" width="110" height="30" as="geometry" />
        </mxCell>
        <mxCell id="MMu5Ellv6yzPF977NXEl-7" style="edgeStyle=orthogonalEdgeStyle;rounded=0;orthogonalLoop=1;jettySize=auto;html=1;exitX=1;exitY=0.5;exitDx=0;exitDy=0;" edge="1" parent="1" source="MMu5Ellv6yzPF977NXEl-3" target="MMu5Ellv6yzPF977NXEl-6">
          <mxGeometry relative="1" as="geometry" />
        </mxCell>
        <mxCell id="MMu5Ellv6yzPF977NXEl-3" value="shapelet sequence&lt;br style=&quot;border-color: var(--border-color);&quot;&gt;&lt;span style=&quot;&quot;&gt;change method&lt;/span&gt;" style="rhombus;whiteSpace=wrap;html=1;" vertex="1" parent="1">
          <mxGeometry x="130" y="160" width="150" height="140" as="geometry" />
        </mxCell>
        <mxCell id="MMu5Ellv6yzPF977NXEl-12" style="edgeStyle=orthogonalEdgeStyle;rounded=0;orthogonalLoop=1;jettySize=auto;html=1;exitX=1;exitY=0.5;exitDx=0;exitDy=0;exitPerimeter=0;entryX=0;entryY=0.5;entryDx=0;entryDy=0;" edge="1" parent="1" source="MMu5Ellv6yzPF977NXEl-6" target="MMu5Ellv6yzPF977NXEl-11">
          <mxGeometry relative="1" as="geometry" />
        </mxCell>
        <mxCell id="MMu5Ellv6yzPF977NXEl-6" value="" style="shape=cylinder3;whiteSpace=wrap;html=1;boundedLbl=1;backgroundOutline=1;size=15;" vertex="1" parent="1">
          <mxGeometry x="309" y="190" width="60" height="80" as="geometry" />
        </mxCell>
        <mxCell id="MMu5Ellv6yzPF977NXEl-8" value="shapelet sequence&amp;nbsp;&lt;br&gt;representation" style="text;html=1;align=center;verticalAlign=middle;resizable=0;points=[];autosize=1;strokeColor=none;fillColor=none;" vertex="1" parent="1">
          <mxGeometry x="270" y="280" width="130" height="40" as="geometry" />
        </mxCell>
        <mxCell id="MMu5Ellv6yzPF977NXEl-9" value="" style="sketch=0;outlineConnect=0;fontColor=#232F3E;gradientColor=none;fillColor=#4D27AA;strokeColor=none;dashed=0;verticalLabelPosition=bottom;verticalAlign=top;align=center;html=1;fontSize=12;fontStyle=0;aspect=fixed;pointerEvents=1;shape=mxgraph.aws4.mesh;direction=west;" vertex="1" parent="1">
          <mxGeometry x="565" y="191.5" width="78" height="77" as="geometry" />
        </mxCell>
        <mxCell id="MMu5Ellv6yzPF977NXEl-13" style="edgeStyle=orthogonalEdgeStyle;rounded=0;orthogonalLoop=1;jettySize=auto;html=1;exitX=1;exitY=0.5;exitDx=0;exitDy=0;" edge="1" parent="1" source="MMu5Ellv6yzPF977NXEl-11" target="MMu5Ellv6yzPF977NXEl-9">
          <mxGeometry relative="1" as="geometry" />
        </mxCell>
        <mxCell id="MMu5Ellv6yzPF977NXEl-11" value="network&amp;nbsp;&lt;br&gt;embedding" style="rhombus;whiteSpace=wrap;html=1;" vertex="1" parent="1">
          <mxGeometry x="415" y="180" width="100" height="100" as="geometry" />
        </mxCell>
        <mxCell id="MMu5Ellv6yzPF977NXEl-14" value="shapelet graph&amp;nbsp;&lt;br&gt;representation" style="text;html=1;align=center;verticalAlign=middle;resizable=0;points=[];autosize=1;strokeColor=none;fillColor=none;" vertex="1" parent="1">
          <mxGeometry x="549" y="280" width="110" height="40" as="geometry" />
        </mxCell>
        <mxCell id="MMu5Ellv6yzPF977NXEl-20" style="edgeStyle=orthogonalEdgeStyle;rounded=0;orthogonalLoop=1;jettySize=auto;html=1;entryX=0;entryY=0.5;entryDx=0;entryDy=0;" edge="1" parent="1" source="MMu5Ellv6yzPF977NXEl-15" target="MMu5Ellv6yzPF977NXEl-19">
          <mxGeometry relative="1" as="geometry" />
        </mxCell>
        <mxCell id="MMu5Ellv6yzPF977NXEl-15" value="" style="sketch=0;outlineConnect=0;fontColor=#232F3E;gradientColor=none;fillColor=#4D27AA;strokeColor=none;dashed=0;verticalLabelPosition=bottom;verticalAlign=top;align=center;html=1;fontSize=12;fontStyle=0;aspect=fixed;pointerEvents=1;shape=mxgraph.aws4.mesh;direction=west;" vertex="1" parent="1">
          <mxGeometry x="36" y="370" width="78" height="77" as="geometry" />
        </mxCell>
        <mxCell id="MMu5Ellv6yzPF977NXEl-16" value="shapelet graph&amp;nbsp;&lt;br&gt;representations" style="text;html=1;align=center;verticalAlign=middle;resizable=0;points=[];autosize=1;strokeColor=none;fillColor=none;" vertex="1" parent="1">
          <mxGeometry x="20" y="640" width="110" height="40" as="geometry" />
        </mxCell>
        <mxCell id="MMu5Ellv6yzPF977NXEl-21" style="edgeStyle=orthogonalEdgeStyle;rounded=0;orthogonalLoop=1;jettySize=auto;html=1;entryX=0;entryY=0.5;entryDx=0;entryDy=0;" edge="1" parent="1" source="MMu5Ellv6yzPF977NXEl-17" target="MMu5Ellv6yzPF977NXEl-19">
          <mxGeometry relative="1" as="geometry" />
        </mxCell>
        <mxCell id="MMu5Ellv6yzPF977NXEl-17" value="" style="sketch=0;outlineConnect=0;fontColor=#232F3E;gradientColor=none;fillColor=#4D27AA;strokeColor=none;dashed=0;verticalLabelPosition=bottom;verticalAlign=top;align=center;html=1;fontSize=12;fontStyle=0;aspect=fixed;pointerEvents=1;shape=mxgraph.aws4.mesh;direction=west;" vertex="1" parent="1">
          <mxGeometry x="36" y="456" width="78" height="77" as="geometry" />
        </mxCell>
        <mxCell id="MMu5Ellv6yzPF977NXEl-22" style="edgeStyle=orthogonalEdgeStyle;rounded=0;orthogonalLoop=1;jettySize=auto;html=1;entryX=0;entryY=0.5;entryDx=0;entryDy=0;" edge="1" parent="1" source="MMu5Ellv6yzPF977NXEl-18" target="MMu5Ellv6yzPF977NXEl-19">
          <mxGeometry relative="1" as="geometry" />
        </mxCell>
        <mxCell id="MMu5Ellv6yzPF977NXEl-18" value="" style="sketch=0;outlineConnect=0;fontColor=#232F3E;gradientColor=none;fillColor=#4D27AA;strokeColor=none;dashed=0;verticalLabelPosition=bottom;verticalAlign=top;align=center;html=1;fontSize=12;fontStyle=0;aspect=fixed;pointerEvents=1;shape=mxgraph.aws4.mesh;direction=west;" vertex="1" parent="1">
          <mxGeometry x="36" y="546" width="78" height="77" as="geometry" />
        </mxCell>
        <mxCell id="MMu5Ellv6yzPF977NXEl-147" style="edgeStyle=orthogonalEdgeStyle;rounded=0;orthogonalLoop=1;jettySize=auto;html=1;exitX=1;exitY=0.5;exitDx=0;exitDy=0;" edge="1" parent="1" source="MMu5Ellv6yzPF977NXEl-19">
          <mxGeometry relative="1" as="geometry">
            <mxPoint x="450" y="410" as="targetPoint" />
          </mxGeometry>
        </mxCell>
        <mxCell id="MMu5Ellv6yzPF977NXEl-148" style="edgeStyle=orthogonalEdgeStyle;rounded=0;orthogonalLoop=1;jettySize=auto;html=1;exitX=1;exitY=0.5;exitDx=0;exitDy=0;entryX=0;entryY=0.5;entryDx=0;entryDy=0;" edge="1" parent="1" source="MMu5Ellv6yzPF977NXEl-19" target="MMu5Ellv6yzPF977NXEl-118">
          <mxGeometry relative="1" as="geometry" />
        </mxCell>
        <mxCell id="MMu5Ellv6yzPF977NXEl-149" style="edgeStyle=orthogonalEdgeStyle;rounded=0;orthogonalLoop=1;jettySize=auto;html=1;exitX=1;exitY=0.5;exitDx=0;exitDy=0;entryX=0;entryY=0.5;entryDx=0;entryDy=0;" edge="1" parent="1" source="MMu5Ellv6yzPF977NXEl-19" target="MMu5Ellv6yzPF977NXEl-132">
          <mxGeometry relative="1" as="geometry" />
        </mxCell>
        <mxCell id="MMu5Ellv6yzPF977NXEl-19" value="graph clustering method" style="rhombus;whiteSpace=wrap;html=1;" vertex="1" parent="1">
          <mxGeometry x="210" y="405" width="175" height="180" as="geometry" />
        </mxCell>
        <mxCell id="MMu5Ellv6yzPF977NXEl-146" value="" style="group" vertex="1" connectable="0" parent="1">
          <mxGeometry x="450" y="330" width="215.48000000000002" height="552.5" as="geometry" />
        </mxCell>
        <mxCell id="MMu5Ellv6yzPF977NXEl-88" value="" style="group" vertex="1" connectable="0" parent="MMu5Ellv6yzPF977NXEl-146">
          <mxGeometry width="215.48" height="172.5" as="geometry" />
        </mxCell>
        <mxCell id="MMu5Ellv6yzPF977NXEl-37" value="" style="rounded=1;whiteSpace=wrap;html=1;fillColor=none;" vertex="1" parent="MMu5Ellv6yzPF977NXEl-88">
          <mxGeometry x="0.0049999999999954525" y="-7.5" width="215.475" height="180" as="geometry" />
        </mxCell>
        <mxCell id="MMu5Ellv6yzPF977NXEl-75" value="" style="group" vertex="1" connectable="0" parent="MMu5Ellv6yzPF977NXEl-88">
          <mxGeometry width="100" height="90" as="geometry" />
        </mxCell>
        <mxCell id="MMu5Ellv6yzPF977NXEl-23" value="" style="rounded=1;whiteSpace=wrap;html=1;fillColor=default;" vertex="1" parent="MMu5Ellv6yzPF977NXEl-75">
          <mxGeometry x="6.125" width="87.75" height="90" as="geometry" />
        </mxCell>
        <mxCell id="MMu5Ellv6yzPF977NXEl-24" value="" style="sketch=0;outlineConnect=0;fontColor=#232F3E;gradientColor=none;fillColor=#4D27AA;strokeColor=none;dashed=0;verticalLabelPosition=bottom;verticalAlign=top;align=center;html=1;fontSize=12;fontStyle=0;aspect=fixed;pointerEvents=1;shape=mxgraph.aws4.mesh;direction=west;" vertex="1" parent="MMu5Ellv6yzPF977NXEl-75">
          <mxGeometry x="22.836500000000115" y="30" width="54.327" height="53.625" as="geometry" />
        </mxCell>
        <mxCell id="MMu5Ellv6yzPF977NXEl-27" value="Clustering1 H1" style="text;html=1;align=center;verticalAlign=middle;resizable=0;points=[];autosize=1;strokeColor=none;fillColor=none;" vertex="1" parent="MMu5Ellv6yzPF977NXEl-75">
          <mxGeometry width="100" height="30" as="geometry" />
        </mxCell>
        <mxCell id="MMu5Ellv6yzPF977NXEl-80" value="" style="group" vertex="1" connectable="0" parent="MMu5Ellv6yzPF977NXEl-88">
          <mxGeometry x="49" y="36" width="100" height="90" as="geometry" />
        </mxCell>
        <mxCell id="MMu5Ellv6yzPF977NXEl-81" value="" style="rounded=1;whiteSpace=wrap;html=1;fillColor=default;" vertex="1" parent="MMu5Ellv6yzPF977NXEl-80">
          <mxGeometry x="6.125" width="87.75" height="90" as="geometry" />
        </mxCell>
        <mxCell id="MMu5Ellv6yzPF977NXEl-82" value="" style="sketch=0;outlineConnect=0;fontColor=#232F3E;gradientColor=none;fillColor=#4D27AA;strokeColor=none;dashed=0;verticalLabelPosition=bottom;verticalAlign=top;align=center;html=1;fontSize=12;fontStyle=0;aspect=fixed;pointerEvents=1;shape=mxgraph.aws4.mesh;direction=west;" vertex="1" parent="MMu5Ellv6yzPF977NXEl-80">
          <mxGeometry x="22.836500000000115" y="30" width="54.327" height="53.625" as="geometry" />
        </mxCell>
        <mxCell id="MMu5Ellv6yzPF977NXEl-83" value="Clustering1 H2" style="text;html=1;align=center;verticalAlign=middle;resizable=0;points=[];autosize=1;strokeColor=none;fillColor=none;" vertex="1" parent="MMu5Ellv6yzPF977NXEl-80">
          <mxGeometry width="100" height="30" as="geometry" />
        </mxCell>
        <mxCell id="MMu5Ellv6yzPF977NXEl-84" value="" style="group" vertex="1" connectable="0" parent="MMu5Ellv6yzPF977NXEl-88">
          <mxGeometry x="100.47000000000003" y="75" width="100" height="90" as="geometry" />
        </mxCell>
        <mxCell id="MMu5Ellv6yzPF977NXEl-85" value="" style="rounded=1;whiteSpace=wrap;html=1;fillColor=default;" vertex="1" parent="MMu5Ellv6yzPF977NXEl-84">
          <mxGeometry x="6.125" width="87.75" height="90" as="geometry" />
        </mxCell>
        <mxCell id="MMu5Ellv6yzPF977NXEl-86" value="" style="sketch=0;outlineConnect=0;fontColor=#232F3E;gradientColor=none;fillColor=#4D27AA;strokeColor=none;dashed=0;verticalLabelPosition=bottom;verticalAlign=top;align=center;html=1;fontSize=12;fontStyle=0;aspect=fixed;pointerEvents=1;shape=mxgraph.aws4.mesh;direction=west;" vertex="1" parent="MMu5Ellv6yzPF977NXEl-84">
          <mxGeometry x="22.836500000000115" y="30" width="54.327" height="53.625" as="geometry" />
        </mxCell>
        <mxCell id="MMu5Ellv6yzPF977NXEl-87" value="Clustering1 H3" style="text;html=1;align=center;verticalAlign=middle;resizable=0;points=[];autosize=1;strokeColor=none;fillColor=none;" vertex="1" parent="MMu5Ellv6yzPF977NXEl-84">
          <mxGeometry width="100" height="30" as="geometry" />
        </mxCell>
        <mxCell id="MMu5Ellv6yzPF977NXEl-117" value="" style="group" vertex="1" connectable="0" parent="MMu5Ellv6yzPF977NXEl-146">
          <mxGeometry y="190" width="215.48" height="172.5" as="geometry" />
        </mxCell>
        <mxCell id="MMu5Ellv6yzPF977NXEl-118" value="" style="rounded=1;whiteSpace=wrap;html=1;fillColor=none;" vertex="1" parent="MMu5Ellv6yzPF977NXEl-117">
          <mxGeometry x="0.0049999999999954525" y="-7.5" width="215.475" height="180" as="geometry" />
        </mxCell>
        <mxCell id="MMu5Ellv6yzPF977NXEl-119" value="" style="group" vertex="1" connectable="0" parent="MMu5Ellv6yzPF977NXEl-117">
          <mxGeometry width="100" height="90" as="geometry" />
        </mxCell>
        <mxCell id="MMu5Ellv6yzPF977NXEl-120" value="" style="rounded=1;whiteSpace=wrap;html=1;fillColor=default;" vertex="1" parent="MMu5Ellv6yzPF977NXEl-119">
          <mxGeometry x="6.125" width="87.75" height="90" as="geometry" />
        </mxCell>
        <mxCell id="MMu5Ellv6yzPF977NXEl-121" value="" style="sketch=0;outlineConnect=0;fontColor=#232F3E;gradientColor=none;fillColor=#4D27AA;strokeColor=none;dashed=0;verticalLabelPosition=bottom;verticalAlign=top;align=center;html=1;fontSize=12;fontStyle=0;aspect=fixed;pointerEvents=1;shape=mxgraph.aws4.mesh;direction=west;" vertex="1" parent="MMu5Ellv6yzPF977NXEl-119">
          <mxGeometry x="22.836500000000115" y="30" width="54.327" height="53.625" as="geometry" />
        </mxCell>
        <mxCell id="MMu5Ellv6yzPF977NXEl-122" value="Clustering2 H1" style="text;html=1;align=center;verticalAlign=middle;resizable=0;points=[];autosize=1;strokeColor=none;fillColor=none;" vertex="1" parent="MMu5Ellv6yzPF977NXEl-119">
          <mxGeometry width="100" height="30" as="geometry" />
        </mxCell>
        <mxCell id="MMu5Ellv6yzPF977NXEl-123" value="" style="group" vertex="1" connectable="0" parent="MMu5Ellv6yzPF977NXEl-117">
          <mxGeometry x="49" y="36" width="100" height="90" as="geometry" />
        </mxCell>
        <mxCell id="MMu5Ellv6yzPF977NXEl-124" value="" style="rounded=1;whiteSpace=wrap;html=1;fillColor=default;" vertex="1" parent="MMu5Ellv6yzPF977NXEl-123">
          <mxGeometry x="6.125" width="87.75" height="90" as="geometry" />
        </mxCell>
        <mxCell id="MMu5Ellv6yzPF977NXEl-125" value="" style="sketch=0;outlineConnect=0;fontColor=#232F3E;gradientColor=none;fillColor=#4D27AA;strokeColor=none;dashed=0;verticalLabelPosition=bottom;verticalAlign=top;align=center;html=1;fontSize=12;fontStyle=0;aspect=fixed;pointerEvents=1;shape=mxgraph.aws4.mesh;direction=west;" vertex="1" parent="MMu5Ellv6yzPF977NXEl-123">
          <mxGeometry x="22.836500000000115" y="30" width="54.327" height="53.625" as="geometry" />
        </mxCell>
        <mxCell id="MMu5Ellv6yzPF977NXEl-126" value="Clustering2 H2" style="text;html=1;align=center;verticalAlign=middle;resizable=0;points=[];autosize=1;strokeColor=none;fillColor=none;" vertex="1" parent="MMu5Ellv6yzPF977NXEl-123">
          <mxGeometry width="100" height="30" as="geometry" />
        </mxCell>
        <mxCell id="MMu5Ellv6yzPF977NXEl-127" value="" style="group" vertex="1" connectable="0" parent="MMu5Ellv6yzPF977NXEl-117">
          <mxGeometry x="100.47000000000003" y="75" width="100" height="90" as="geometry" />
        </mxCell>
        <mxCell id="MMu5Ellv6yzPF977NXEl-128" value="" style="rounded=1;whiteSpace=wrap;html=1;fillColor=default;" vertex="1" parent="MMu5Ellv6yzPF977NXEl-127">
          <mxGeometry x="6.125" width="87.75" height="90" as="geometry" />
        </mxCell>
        <mxCell id="MMu5Ellv6yzPF977NXEl-129" value="" style="sketch=0;outlineConnect=0;fontColor=#232F3E;gradientColor=none;fillColor=#4D27AA;strokeColor=none;dashed=0;verticalLabelPosition=bottom;verticalAlign=top;align=center;html=1;fontSize=12;fontStyle=0;aspect=fixed;pointerEvents=1;shape=mxgraph.aws4.mesh;direction=west;" vertex="1" parent="MMu5Ellv6yzPF977NXEl-127">
          <mxGeometry x="22.836500000000115" y="30" width="54.327" height="53.625" as="geometry" />
        </mxCell>
        <mxCell id="MMu5Ellv6yzPF977NXEl-130" value="Clustering2 H3" style="text;html=1;align=center;verticalAlign=middle;resizable=0;points=[];autosize=1;strokeColor=none;fillColor=none;" vertex="1" parent="MMu5Ellv6yzPF977NXEl-127">
          <mxGeometry width="100" height="30" as="geometry" />
        </mxCell>
        <mxCell id="MMu5Ellv6yzPF977NXEl-131" value="" style="group" vertex="1" connectable="0" parent="MMu5Ellv6yzPF977NXEl-146">
          <mxGeometry y="380" width="215.48" height="172.5" as="geometry" />
        </mxCell>
        <mxCell id="MMu5Ellv6yzPF977NXEl-132" value="" style="rounded=1;whiteSpace=wrap;html=1;fillColor=none;" vertex="1" parent="MMu5Ellv6yzPF977NXEl-131">
          <mxGeometry x="0.0049999999999954525" y="-7.5" width="215.475" height="180" as="geometry" />
        </mxCell>
        <mxCell id="MMu5Ellv6yzPF977NXEl-133" value="" style="group" vertex="1" connectable="0" parent="MMu5Ellv6yzPF977NXEl-131">
          <mxGeometry width="100" height="90" as="geometry" />
        </mxCell>
        <mxCell id="MMu5Ellv6yzPF977NXEl-134" value="" style="rounded=1;whiteSpace=wrap;html=1;fillColor=default;" vertex="1" parent="MMu5Ellv6yzPF977NXEl-133">
          <mxGeometry x="6.125" width="87.75" height="90" as="geometry" />
        </mxCell>
        <mxCell id="MMu5Ellv6yzPF977NXEl-135" value="" style="sketch=0;outlineConnect=0;fontColor=#232F3E;gradientColor=none;fillColor=#4D27AA;strokeColor=none;dashed=0;verticalLabelPosition=bottom;verticalAlign=top;align=center;html=1;fontSize=12;fontStyle=0;aspect=fixed;pointerEvents=1;shape=mxgraph.aws4.mesh;direction=west;" vertex="1" parent="MMu5Ellv6yzPF977NXEl-133">
          <mxGeometry x="22.836500000000115" y="30" width="54.327" height="53.625" as="geometry" />
        </mxCell>
        <mxCell id="MMu5Ellv6yzPF977NXEl-136" value="Clustering3 H1" style="text;html=1;align=center;verticalAlign=middle;resizable=0;points=[];autosize=1;strokeColor=none;fillColor=none;" vertex="1" parent="MMu5Ellv6yzPF977NXEl-133">
          <mxGeometry width="100" height="30" as="geometry" />
        </mxCell>
        <mxCell id="MMu5Ellv6yzPF977NXEl-137" value="" style="group" vertex="1" connectable="0" parent="MMu5Ellv6yzPF977NXEl-131">
          <mxGeometry x="49" y="36" width="100" height="90" as="geometry" />
        </mxCell>
        <mxCell id="MMu5Ellv6yzPF977NXEl-138" value="" style="rounded=1;whiteSpace=wrap;html=1;fillColor=default;" vertex="1" parent="MMu5Ellv6yzPF977NXEl-137">
          <mxGeometry x="6.125" width="87.75" height="90" as="geometry" />
        </mxCell>
        <mxCell id="MMu5Ellv6yzPF977NXEl-139" value="" style="sketch=0;outlineConnect=0;fontColor=#232F3E;gradientColor=none;fillColor=#4D27AA;strokeColor=none;dashed=0;verticalLabelPosition=bottom;verticalAlign=top;align=center;html=1;fontSize=12;fontStyle=0;aspect=fixed;pointerEvents=1;shape=mxgraph.aws4.mesh;direction=west;" vertex="1" parent="MMu5Ellv6yzPF977NXEl-137">
          <mxGeometry x="22.836500000000115" y="30" width="54.327" height="53.625" as="geometry" />
        </mxCell>
        <mxCell id="MMu5Ellv6yzPF977NXEl-140" value="Clustering3 H2" style="text;html=1;align=center;verticalAlign=middle;resizable=0;points=[];autosize=1;strokeColor=none;fillColor=none;" vertex="1" parent="MMu5Ellv6yzPF977NXEl-137">
          <mxGeometry width="100" height="30" as="geometry" />
        </mxCell>
        <mxCell id="MMu5Ellv6yzPF977NXEl-141" value="" style="group" vertex="1" connectable="0" parent="MMu5Ellv6yzPF977NXEl-131">
          <mxGeometry x="100.47000000000003" y="75" width="100" height="90" as="geometry" />
        </mxCell>
        <mxCell id="MMu5Ellv6yzPF977NXEl-142" value="" style="rounded=1;whiteSpace=wrap;html=1;fillColor=default;" vertex="1" parent="MMu5Ellv6yzPF977NXEl-141">
          <mxGeometry x="6.125" width="87.75" height="90" as="geometry" />
        </mxCell>
        <mxCell id="MMu5Ellv6yzPF977NXEl-143" value="" style="sketch=0;outlineConnect=0;fontColor=#232F3E;gradientColor=none;fillColor=#4D27AA;strokeColor=none;dashed=0;verticalLabelPosition=bottom;verticalAlign=top;align=center;html=1;fontSize=12;fontStyle=0;aspect=fixed;pointerEvents=1;shape=mxgraph.aws4.mesh;direction=west;" vertex="1" parent="MMu5Ellv6yzPF977NXEl-141">
          <mxGeometry x="22.836500000000115" y="30" width="54.327" height="53.625" as="geometry" />
        </mxCell>
        <mxCell id="MMu5Ellv6yzPF977NXEl-144" value="Clustering3 H3" style="text;html=1;align=center;verticalAlign=middle;resizable=0;points=[];autosize=1;strokeColor=none;fillColor=none;" vertex="1" parent="MMu5Ellv6yzPF977NXEl-141">
          <mxGeometry width="100" height="30" as="geometry" />
        </mxCell>
      </root>
    </mxGraphModel>
  </diagram>
</mxfile>
